<svg width="131" height="57" viewBox="0 0 131 57" fill="none" xmlns="http://www.w3.org/2000/svg">
<rect x="0.5" y="0.5" width="130" height="56" rx="7.5" fill="white" stroke="#BCC1CA"/>
<path d="M90.4516 45.1265H41.4856C39.7306 45.1265 38.3076 43.7035 38.3076 41.9485V13.9888C38.3076 12.2339 39.7306 10.8109 41.4856 10.8109H90.4516C92.2065 10.8109 93.6295 12.2339 93.6295 13.9888V41.9479C93.6295 43.7035 92.2065 45.1265 90.4516 45.1265Z" fill="#363B38"/>
<path d="M90.4512 10.8109H89.5882V25.2751C89.5882 35.123 81.6052 43.106 71.7573 43.106H38.5322C38.9957 44.2874 40.1396 45.1265 41.4852 45.1265H90.4512C92.2061 45.1265 93.6291 43.7035 93.6291 41.9485V13.9888C93.6291 12.2339 92.2061 10.8109 90.4512 10.8109Z" fill="#2E322F"/>
<path d="M49.9697 21.989H43.1829C42.4619 21.989 41.8779 21.4044 41.8779 20.684V17.0297C41.8779 16.3087 42.4625 15.7247 43.1829 15.7247H49.9697C50.6907 15.7247 51.2747 16.3093 51.2747 17.0297V20.684C51.2747 21.4044 50.6907 21.989 49.9697 21.989Z" fill="#EAA500"/>
<path d="M50.5304 28.6547H42.6212C42.2419 28.6547 41.9346 28.348 41.9346 27.9681C41.9346 27.5882 42.2419 27.2815 42.6212 27.2815H50.531C50.9102 27.2815 51.2176 27.5882 51.2176 27.9681C51.2176 28.348 50.9096 28.6547 50.5304 28.6547Z" fill="#545C56"/>
<path d="M62.086 28.6547H54.1768C53.7976 28.6547 53.4902 28.348 53.4902 27.9681C53.4902 27.5882 53.7976 27.2815 54.1768 27.2815H62.0866C62.4659 27.2815 62.7732 27.5882 62.7732 27.9681C62.7732 28.348 62.4653 28.6547 62.086 28.6547Z" fill="#545C56"/>
<path d="M73.6419 28.6547H65.7315C65.3523 28.6547 65.0449 28.348 65.0449 27.9681C65.0449 27.5882 65.3517 27.2815 65.7315 27.2815H73.6419C74.0212 27.2815 74.3285 27.5882 74.3285 27.9681C74.3285 28.348 74.0212 28.6547 73.6419 28.6547Z" fill="#545C56"/>
<path d="M85.1976 28.6547H77.2872C76.9079 28.6547 76.6006 28.348 76.6006 27.9681C76.6006 27.5882 76.9073 27.2815 77.2872 27.2815H85.1976C85.5769 27.2815 85.8842 27.5882 85.8842 27.9681C85.8842 28.348 85.5769 28.6547 85.1976 28.6547Z" fill="#545C56"/>
<path d="M57.3946 40.3233H42.6212C42.2419 40.3233 41.9346 40.0166 41.9346 39.6367C41.9346 39.2574 42.2419 38.9501 42.6212 38.9501H57.3946C57.7738 38.9501 58.0812 39.2568 58.0812 39.6367C58.0812 40.0166 57.7738 40.3233 57.3946 40.3233Z" fill="#545C56"/>
<path d="M57.3945 36.2049H52.2306C51.8513 36.2049 51.5439 35.8981 51.5439 35.5183C51.5439 35.1384 51.8513 34.8317 52.2306 34.8317H57.3945C57.7738 34.8317 58.0811 35.1384 58.0811 35.5183C58.0811 35.8981 57.7738 36.2049 57.3945 36.2049Z" fill="#545C56"/>
<path d="M83.5843 34.3965C82.6131 34.3965 81.7562 34.8477 81.1821 35.541C80.6074 34.8477 79.7505 34.3965 78.7799 34.3965C77.0502 34.3965 75.6475 35.7992 75.6475 37.5289C75.6475 39.2587 77.0502 40.6614 78.7799 40.6614C79.7511 40.6614 80.608 40.2102 81.1821 39.5168C81.7568 40.2102 82.6137 40.6614 83.5843 40.6614C85.314 40.6614 86.7168 39.2587 86.7168 37.5289C86.7168 35.7986 85.314 34.3965 83.5843 34.3965Z" fill="#545C56"/>
<path d="M81.7461 40.0467C82.2612 40.429 82.8925 40.6607 83.584 40.6607C85.3137 40.6607 86.7165 39.258 86.7165 37.5283C86.7165 36.8743 86.5148 36.2682 86.1725 35.766C84.9554 37.4355 83.4586 38.8868 81.7461 40.0467Z" fill="#494F4A"/>
</svg>
