<svg width="179" height="46" viewBox="0 0 179 46" fill="none" xmlns="http://www.w3.org/2000/svg">
<path d="M3.5 23C3.5 12.2304 12.2304 3.5 23 3.5H156C166.77 3.5 175.5 12.2304 175.5 23C175.5 33.7696 166.77 42.5 156 42.5H23C12.2305 42.5 3.5 33.7696 3.5 23Z" fill="white"/>
<path d="M3.5 23C3.5 12.2304 12.2304 3.5 23 3.5H156C166.77 3.5 175.5 12.2304 175.5 23C175.5 33.7696 166.77 42.5 156 42.5H23C12.2305 42.5 3.5 33.7696 3.5 23Z" stroke="#C1D5F6"/>
<path fill-rule="evenodd" clip-rule="evenodd" d="M32.64 23.2046C32.64 22.5664 32.5827 21.9527 32.4764 21.3636H24V24.845H28.8436C28.635 25.97 28.0009 26.9232 27.0477 27.5614V29.8196H29.9564C31.6582 28.2527 32.64 25.9455 32.64 23.2046Z" fill="#4285F4"/>
<path fill-rule="evenodd" clip-rule="evenodd" d="M24 32C26.43 32 28.4673 31.1941 29.9564 29.8196L27.0477 27.5614C26.2418 28.1014 25.2109 28.4205 24 28.4205C21.6559 28.4205 19.6718 26.8373 18.9641 24.71H15.9573V27.0418C17.4382 29.9832 20.4818 32 24 32Z" fill="#34A853"/>
<path fill-rule="evenodd" clip-rule="evenodd" d="M18.9641 24.71C18.7841 24.17 18.6818 23.5932 18.6818 23C18.6818 22.4068 18.7841 21.83 18.9641 21.29V18.9582H15.9573C15.3477 20.1732 15 21.5477 15 23C15 24.4523 15.3477 25.8268 15.9573 27.0418L18.9641 24.71Z" fill="#FBBC05"/>
<path fill-rule="evenodd" clip-rule="evenodd" d="M24 17.5795C25.3214 17.5795 26.5077 18.0336 27.4405 18.9255L30.0218 16.3441C28.4632 14.8918 26.4259 14 24 14C20.4818 14 17.4382 16.0168 15.9573 18.9582L18.9641 21.29C19.6718 19.1627 21.6559 17.5795 24 17.5795Z" fill="#EA4335"/>
<path d="M49.248 25.4365C49.248 25.2314 49.2161 25.0492 49.1523 24.8896C49.0931 24.7301 48.986 24.5843 48.8311 24.4521C48.6761 24.32 48.4574 24.1924 48.1748 24.0693C47.8968 23.9417 47.5413 23.8118 47.1084 23.6797C46.6344 23.5339 46.1969 23.3721 45.7959 23.1943C45.3994 23.012 45.0531 22.8024 44.7568 22.5654C44.4606 22.3239 44.2305 22.0482 44.0664 21.7383C43.9023 21.4238 43.8203 21.0615 43.8203 20.6514C43.8203 20.2458 43.9046 19.8766 44.0732 19.5439C44.2464 19.2113 44.4902 18.9242 44.8047 18.6826C45.1237 18.4365 45.4997 18.2474 45.9326 18.1152C46.3656 17.9785 46.8441 17.9102 47.3682 17.9102C48.1064 17.9102 48.7422 18.0469 49.2754 18.3203C49.8132 18.5938 50.2256 18.9606 50.5127 19.4209C50.8044 19.8812 50.9502 20.3893 50.9502 20.9453H49.248C49.248 20.6172 49.1774 20.3278 49.0361 20.0771C48.8994 19.8219 48.6898 19.6214 48.4072 19.4756C48.1292 19.3298 47.776 19.2568 47.3477 19.2568C46.9421 19.2568 46.6048 19.3184 46.3359 19.4414C46.0671 19.5645 45.8665 19.7308 45.7344 19.9404C45.6022 20.1501 45.5361 20.387 45.5361 20.6514C45.5361 20.8382 45.5794 21.0091 45.666 21.1641C45.7526 21.3145 45.8848 21.4557 46.0625 21.5879C46.2402 21.7155 46.4635 21.8363 46.7324 21.9502C47.0013 22.0641 47.318 22.1735 47.6826 22.2783C48.234 22.4424 48.7148 22.6247 49.125 22.8252C49.5352 23.0212 49.877 23.2445 50.1504 23.4951C50.4238 23.7458 50.6289 24.0306 50.7656 24.3496C50.9023 24.6641 50.9707 25.0218 50.9707 25.4229C50.9707 25.8421 50.8864 26.2204 50.7178 26.5576C50.5492 26.8903 50.3076 27.1751 49.9932 27.4121C49.6833 27.6445 49.3096 27.8245 48.8721 27.9521C48.4391 28.0752 47.9561 28.1367 47.4229 28.1367C46.9443 28.1367 46.4727 28.0729 46.0078 27.9453C45.5475 27.8177 45.1283 27.624 44.75 27.3643C44.3717 27.0999 44.071 26.7718 43.8477 26.3799C43.6243 25.9834 43.5127 25.5208 43.5127 24.9922H45.2285C45.2285 25.3158 45.2832 25.5915 45.3926 25.8193C45.5065 26.0472 45.6637 26.234 45.8643 26.3799C46.0648 26.5212 46.2972 26.626 46.5615 26.6943C46.8304 26.7627 47.1175 26.7969 47.4229 26.7969C47.8239 26.7969 48.1589 26.7399 48.4277 26.626C48.7012 26.512 48.9062 26.3525 49.043 26.1475C49.1797 25.9424 49.248 25.7054 49.248 25.4365ZM54.0879 20.6035V28H52.4336V20.6035H54.0879ZM52.3242 18.6621C52.3242 18.4115 52.4062 18.2041 52.5703 18.04C52.7389 17.8714 52.9714 17.7871 53.2676 17.7871C53.5592 17.7871 53.7894 17.8714 53.958 18.04C54.1266 18.2041 54.2109 18.4115 54.2109 18.6621C54.2109 18.9082 54.1266 19.1133 53.958 19.2773C53.7894 19.4414 53.5592 19.5234 53.2676 19.5234C52.9714 19.5234 52.7389 19.4414 52.5703 19.2773C52.4062 19.1133 52.3242 18.9082 52.3242 18.6621ZM60.6299 20.6035H62.127V27.7949C62.127 28.4603 61.9857 29.0254 61.7031 29.4902C61.4206 29.9551 61.0264 30.3083 60.5205 30.5498C60.0146 30.7959 59.429 30.9189 58.7637 30.9189C58.4811 30.9189 58.1667 30.8779 57.8203 30.7959C57.4785 30.7139 57.1458 30.5817 56.8223 30.3994C56.5033 30.2217 56.2367 29.987 56.0225 29.6953L56.7949 28.7246C57.0592 29.0391 57.3509 29.2692 57.6699 29.415C57.9889 29.5609 58.3239 29.6338 58.6748 29.6338C59.0531 29.6338 59.3743 29.5632 59.6387 29.4219C59.9076 29.2852 60.1149 29.0824 60.2607 28.8135C60.4066 28.5446 60.4795 28.2165 60.4795 27.8291V22.2783L60.6299 20.6035ZM55.6055 24.3838V24.2402C55.6055 23.6797 55.6738 23.1693 55.8105 22.709C55.9473 22.2441 56.1432 21.8454 56.3984 21.5127C56.6536 21.1755 56.9635 20.918 57.3281 20.7402C57.6927 20.5579 58.1051 20.4668 58.5654 20.4668C59.0439 20.4668 59.4518 20.5534 59.7891 20.7266C60.1309 20.8997 60.4157 21.1481 60.6436 21.4717C60.8714 21.7907 61.0492 22.1735 61.1768 22.6201C61.3089 23.0622 61.4069 23.5544 61.4707 24.0967V24.5547C61.4115 25.0833 61.3112 25.5664 61.1699 26.0039C61.0286 26.4414 60.8418 26.8197 60.6094 27.1387C60.377 27.4577 60.0898 27.7038 59.748 27.877C59.4108 28.0501 59.012 28.1367 58.5518 28.1367C58.1006 28.1367 57.6927 28.0433 57.3281 27.8564C56.9681 27.6696 56.6582 27.4076 56.3984 27.0703C56.1432 26.7331 55.9473 26.3366 55.8105 25.8809C55.6738 25.4206 55.6055 24.9215 55.6055 24.3838ZM57.2529 24.2402V24.3838C57.2529 24.721 57.2848 25.0355 57.3486 25.3271C57.417 25.6188 57.5195 25.8763 57.6562 26.0996C57.7975 26.3184 57.9753 26.4915 58.1895 26.6191C58.4082 26.7422 58.6657 26.8037 58.9619 26.8037C59.3493 26.8037 59.666 26.7217 59.9121 26.5576C60.1628 26.3936 60.3542 26.1725 60.4863 25.8945C60.623 25.612 60.7188 25.2975 60.7734 24.9512V23.7139C60.7461 23.445 60.6891 23.1943 60.6025 22.9619C60.5205 22.7295 60.4089 22.5267 60.2676 22.3535C60.1263 22.1758 59.9486 22.0391 59.7344 21.9434C59.5202 21.8431 59.2673 21.793 58.9756 21.793C58.6794 21.793 58.4219 21.8568 58.2031 21.9844C57.9844 22.112 57.8044 22.2874 57.6631 22.5107C57.5264 22.734 57.4238 22.9938 57.3555 23.29C57.2871 23.5863 57.2529 23.903 57.2529 24.2402ZM65.4697 22.1826V28H63.8223V20.6035H65.374L65.4697 22.1826ZM65.1758 24.0283L64.6426 24.0215C64.6471 23.4974 64.7201 23.0166 64.8613 22.5791C65.0072 22.1416 65.2077 21.7656 65.4629 21.4512C65.7227 21.1367 66.0326 20.8952 66.3926 20.7266C66.7526 20.5534 67.1536 20.4668 67.5957 20.4668C67.9512 20.4668 68.2725 20.5169 68.5596 20.6172C68.8512 20.7129 69.0996 20.8701 69.3047 21.0889C69.5143 21.3076 69.6738 21.5924 69.7832 21.9434C69.8926 22.2897 69.9473 22.7158 69.9473 23.2217V28H68.293V23.2148C68.293 22.8594 68.2406 22.5791 68.1357 22.374C68.0355 22.1644 67.8874 22.0163 67.6914 21.9297C67.5 21.8385 67.2607 21.793 66.9736 21.793C66.6911 21.793 66.4382 21.8522 66.2148 21.9707C65.9915 22.0892 65.8024 22.251 65.6475 22.4561C65.4971 22.6611 65.3809 22.8981 65.2988 23.167C65.2168 23.4359 65.1758 23.723 65.1758 24.0283ZM76.8789 20.6035V28H75.2246V20.6035H76.8789ZM75.1152 18.6621C75.1152 18.4115 75.1973 18.2041 75.3613 18.04C75.5299 17.8714 75.7624 17.7871 76.0586 17.7871C76.3503 17.7871 76.5804 17.8714 76.749 18.04C76.9176 18.2041 77.002 18.4115 77.002 18.6621C77.002 18.9082 76.9176 19.1133 76.749 19.2773C76.5804 19.4414 76.3503 19.5234 76.0586 19.5234C75.7624 19.5234 75.5299 19.4414 75.3613 19.2773C75.1973 19.1133 75.1152 18.9082 75.1152 18.6621ZM80.3174 22.1826V28H78.6699V20.6035H80.2217L80.3174 22.1826ZM80.0234 24.0283L79.4902 24.0215C79.4948 23.4974 79.5677 23.0166 79.709 22.5791C79.8548 22.1416 80.0553 21.7656 80.3105 21.4512C80.5703 21.1367 80.8802 20.8952 81.2402 20.7266C81.6003 20.5534 82.0013 20.4668 82.4434 20.4668C82.7988 20.4668 83.1201 20.5169 83.4072 20.6172C83.6989 20.7129 83.9473 20.8701 84.1523 21.0889C84.362 21.3076 84.5215 21.5924 84.6309 21.9434C84.7402 22.2897 84.7949 22.7158 84.7949 23.2217V28H83.1406V23.2148C83.1406 22.8594 83.0882 22.5791 82.9834 22.374C82.8831 22.1644 82.735 22.0163 82.5391 21.9297C82.3477 21.8385 82.1084 21.793 81.8213 21.793C81.5387 21.793 81.2858 21.8522 81.0625 21.9707C80.8392 22.0892 80.6501 22.251 80.4951 22.4561C80.3447 22.6611 80.2285 22.8981 80.1465 23.167C80.0645 23.4359 80.0234 23.723 80.0234 24.0283ZM91.9727 26.3594L93.6816 20.6035H94.7344L94.4473 22.3262L92.7246 28H91.7812L91.9727 26.3594ZM90.9678 20.6035L92.3008 26.3867L92.4102 28H91.3574L89.3545 20.6035H90.9678ZM96.334 26.3184L97.626 20.6035H99.2324L97.2363 28H96.1836L96.334 26.3184ZM94.9121 20.6035L96.6006 26.291L96.8125 28H95.8691L94.126 22.3193L93.8389 20.6035H94.9121ZM102.117 20.6035V28H100.463V20.6035H102.117ZM100.354 18.6621C100.354 18.4115 100.436 18.2041 100.6 18.04C100.768 17.8714 101.001 17.7871 101.297 17.7871C101.589 17.7871 101.819 17.8714 101.987 18.04C102.156 18.2041 102.24 18.4115 102.24 18.6621C102.24 18.9082 102.156 19.1133 101.987 19.2773C101.819 19.4414 101.589 19.5234 101.297 19.5234C101.001 19.5234 100.768 19.4414 100.6 19.2773C100.436 19.1133 100.354 18.9082 100.354 18.6621ZM107.312 20.6035V21.8066H103.143V20.6035H107.312ZM104.346 18.792H105.993V25.9561C105.993 26.1839 106.025 26.3594 106.089 26.4824C106.157 26.6009 106.251 26.6807 106.369 26.7217C106.488 26.7627 106.627 26.7832 106.786 26.7832C106.9 26.7832 107.009 26.7764 107.114 26.7627C107.219 26.749 107.303 26.7354 107.367 26.7217L107.374 27.9795C107.237 28.0205 107.078 28.057 106.896 28.0889C106.718 28.1208 106.513 28.1367 106.28 28.1367C105.902 28.1367 105.567 28.0706 105.275 27.9385C104.984 27.8018 104.756 27.5807 104.592 27.2754C104.428 26.9701 104.346 26.5645 104.346 26.0586V18.792ZM110.211 17.5V28H108.57V17.5H110.211ZM109.924 24.0283L109.391 24.0215C109.395 23.5111 109.466 23.0394 109.603 22.6064C109.744 22.1735 109.94 21.7975 110.19 21.4785C110.446 21.1549 110.751 20.9066 111.106 20.7334C111.462 20.5557 111.856 20.4668 112.289 20.4668C112.654 20.4668 112.982 20.5169 113.273 20.6172C113.57 20.7174 113.825 20.8792 114.039 21.1025C114.253 21.3213 114.415 21.6084 114.524 21.9639C114.638 22.3148 114.695 22.7432 114.695 23.249V28H113.041V23.2354C113.041 22.8799 112.989 22.5973 112.884 22.3877C112.784 22.1781 112.635 22.0277 112.439 21.9365C112.243 21.8408 112.004 21.793 111.722 21.793C111.425 21.793 111.163 21.8522 110.936 21.9707C110.712 22.0892 110.525 22.251 110.375 22.4561C110.225 22.6611 110.111 22.8981 110.033 23.167C109.96 23.4359 109.924 23.723 109.924 24.0283ZM127.656 22.9141V26.7148C127.515 26.9017 127.294 27.1068 126.993 27.3301C126.697 27.5488 126.303 27.738 125.811 27.8975C125.318 28.057 124.705 28.1367 123.972 28.1367C123.347 28.1367 122.775 28.0319 122.256 27.8223C121.736 27.6081 121.287 27.2959 120.909 26.8857C120.535 26.4756 120.246 25.9766 120.041 25.3887C119.836 24.7962 119.733 24.1217 119.733 23.3652V22.6748C119.733 21.9229 119.827 21.2529 120.014 20.665C120.205 20.0726 120.479 19.5713 120.834 19.1611C121.189 18.751 121.618 18.4411 122.119 18.2314C122.625 18.0173 123.197 17.9102 123.835 17.9102C124.651 17.9102 125.325 18.0469 125.858 18.3203C126.396 18.5892 126.811 18.9629 127.103 19.4414C127.394 19.9199 127.579 20.4668 127.656 21.082H125.975C125.92 20.7357 125.813 20.4258 125.653 20.1523C125.498 19.8789 125.275 19.6647 124.983 19.5098C124.696 19.3503 124.323 19.2705 123.862 19.2705C123.466 19.2705 123.117 19.3457 122.816 19.4961C122.516 19.6465 122.265 19.8675 122.064 20.1592C121.868 20.4508 121.72 20.8063 121.62 21.2256C121.52 21.6449 121.47 22.1234 121.47 22.6611V23.3652C121.47 23.9121 121.527 24.3975 121.641 24.8213C121.759 25.2451 121.928 25.6029 122.146 25.8945C122.37 26.1862 122.641 26.4072 122.96 26.5576C123.279 26.7035 123.639 26.7764 124.04 26.7764C124.432 26.7764 124.753 26.7445 125.004 26.6807C125.255 26.6123 125.453 26.5326 125.599 26.4414C125.749 26.3457 125.865 26.2546 125.947 26.168V24.1924H123.876V22.9141H127.656ZM129.078 24.3838V24.2266C129.078 23.6934 129.156 23.1989 129.311 22.7432C129.465 22.2829 129.689 21.8841 129.98 21.5469C130.277 21.2051 130.637 20.9408 131.061 20.7539C131.489 20.5625 131.972 20.4668 132.51 20.4668C133.052 20.4668 133.535 20.5625 133.959 20.7539C134.387 20.9408 134.75 21.2051 135.046 21.5469C135.342 21.8841 135.568 22.2829 135.723 22.7432C135.878 23.1989 135.955 23.6934 135.955 24.2266V24.3838C135.955 24.917 135.878 25.4115 135.723 25.8672C135.568 26.3229 135.342 26.7217 135.046 27.0635C134.75 27.4007 134.39 27.665 133.966 27.8564C133.542 28.0433 133.061 28.1367 132.523 28.1367C131.981 28.1367 131.496 28.0433 131.067 27.8564C130.644 27.665 130.284 27.4007 129.987 27.0635C129.691 26.7217 129.465 26.3229 129.311 25.8672C129.156 25.4115 129.078 24.917 129.078 24.3838ZM130.726 24.2266V24.3838C130.726 24.7165 130.76 25.0309 130.828 25.3271C130.896 25.6234 131.004 25.8831 131.149 26.1064C131.295 26.3298 131.482 26.5052 131.71 26.6328C131.938 26.7604 132.209 26.8242 132.523 26.8242C132.829 26.8242 133.093 26.7604 133.316 26.6328C133.544 26.5052 133.731 26.3298 133.877 26.1064C134.023 25.8831 134.13 25.6234 134.198 25.3271C134.271 25.0309 134.308 24.7165 134.308 24.3838V24.2266C134.308 23.8984 134.271 23.5885 134.198 23.2969C134.13 23.0007 134.021 22.7386 133.87 22.5107C133.724 22.2829 133.537 22.1051 133.31 21.9775C133.086 21.8454 132.82 21.7793 132.51 21.7793C132.2 21.7793 131.931 21.8454 131.703 21.9775C131.48 22.1051 131.295 22.2829 131.149 22.5107C131.004 22.7386 130.896 23.0007 130.828 23.2969C130.76 23.5885 130.726 23.8984 130.726 24.2266ZM137.021 24.3838V24.2266C137.021 23.6934 137.099 23.1989 137.254 22.7432C137.409 22.2829 137.632 21.8841 137.924 21.5469C138.22 21.2051 138.58 20.9408 139.004 20.7539C139.432 20.5625 139.915 20.4668 140.453 20.4668C140.995 20.4668 141.479 20.5625 141.902 20.7539C142.331 20.9408 142.693 21.2051 142.989 21.5469C143.285 21.8841 143.511 22.2829 143.666 22.7432C143.821 23.1989 143.898 23.6934 143.898 24.2266V24.3838C143.898 24.917 143.821 25.4115 143.666 25.8672C143.511 26.3229 143.285 26.7217 142.989 27.0635C142.693 27.4007 142.333 27.665 141.909 27.8564C141.485 28.0433 141.005 28.1367 140.467 28.1367C139.924 28.1367 139.439 28.0433 139.011 27.8564C138.587 27.665 138.227 27.4007 137.931 27.0635C137.634 26.7217 137.409 26.3229 137.254 25.8672C137.099 25.4115 137.021 24.917 137.021 24.3838ZM138.669 24.2266V24.3838C138.669 24.7165 138.703 25.0309 138.771 25.3271C138.84 25.6234 138.947 25.8831 139.093 26.1064C139.239 26.3298 139.425 26.5052 139.653 26.6328C139.881 26.7604 140.152 26.8242 140.467 26.8242C140.772 26.8242 141.036 26.7604 141.26 26.6328C141.488 26.5052 141.674 26.3298 141.82 26.1064C141.966 25.8831 142.073 25.6234 142.142 25.3271C142.215 25.0309 142.251 24.7165 142.251 24.3838V24.2266C142.251 23.8984 142.215 23.5885 142.142 23.2969C142.073 23.0007 141.964 22.7386 141.813 22.5107C141.668 22.2829 141.481 22.1051 141.253 21.9775C141.03 21.8454 140.763 21.7793 140.453 21.7793C140.143 21.7793 139.874 21.8454 139.646 21.9775C139.423 22.1051 139.239 22.2829 139.093 22.5107C138.947 22.7386 138.84 23.0007 138.771 23.2969C138.703 23.5885 138.669 23.8984 138.669 24.2266ZM150.017 20.6035H151.514V27.7949C151.514 28.4603 151.372 29.0254 151.09 29.4902C150.807 29.9551 150.413 30.3083 149.907 30.5498C149.401 30.7959 148.816 30.9189 148.15 30.9189C147.868 30.9189 147.553 30.8779 147.207 30.7959C146.865 30.7139 146.533 30.5817 146.209 30.3994C145.89 30.2217 145.623 29.987 145.409 29.6953L146.182 28.7246C146.446 29.0391 146.738 29.2692 147.057 29.415C147.376 29.5609 147.711 29.6338 148.062 29.6338C148.44 29.6338 148.761 29.5632 149.025 29.4219C149.294 29.2852 149.502 29.0824 149.647 28.8135C149.793 28.5446 149.866 28.2165 149.866 27.8291V22.2783L150.017 20.6035ZM144.992 24.3838V24.2402C144.992 23.6797 145.061 23.1693 145.197 22.709C145.334 22.2441 145.53 21.8454 145.785 21.5127C146.04 21.1755 146.35 20.918 146.715 20.7402C147.079 20.5579 147.492 20.4668 147.952 20.4668C148.431 20.4668 148.839 20.5534 149.176 20.7266C149.518 20.8997 149.802 21.1481 150.03 21.4717C150.258 21.7907 150.436 22.1735 150.563 22.6201C150.696 23.0622 150.794 23.5544 150.857 24.0967V24.5547C150.798 25.0833 150.698 25.5664 150.557 26.0039C150.415 26.4414 150.229 26.8197 149.996 27.1387C149.764 27.4577 149.477 27.7038 149.135 27.877C148.798 28.0501 148.399 28.1367 147.938 28.1367C147.487 28.1367 147.079 28.0433 146.715 27.8564C146.355 27.6696 146.045 27.4076 145.785 27.0703C145.53 26.7331 145.334 26.3366 145.197 25.8809C145.061 25.4206 144.992 24.9215 144.992 24.3838ZM146.64 24.2402V24.3838C146.64 24.721 146.672 25.0355 146.735 25.3271C146.804 25.6188 146.906 25.8763 147.043 26.0996C147.184 26.3184 147.362 26.4915 147.576 26.6191C147.795 26.7422 148.052 26.8037 148.349 26.8037C148.736 26.8037 149.053 26.7217 149.299 26.5576C149.549 26.3936 149.741 26.1725 149.873 25.8945C150.01 25.612 150.105 25.2975 150.16 24.9512V23.7139C150.133 23.445 150.076 23.1943 149.989 22.9619C149.907 22.7295 149.796 22.5267 149.654 22.3535C149.513 22.1758 149.335 22.0391 149.121 21.9434C148.907 21.8431 148.654 21.793 148.362 21.793C148.066 21.793 147.809 21.8568 147.59 21.9844C147.371 22.112 147.191 22.2874 147.05 22.5107C146.913 22.734 146.811 22.9938 146.742 23.29C146.674 23.5863 146.64 23.903 146.64 24.2402ZM154.986 17.5V28H153.332V17.5H154.986ZM160.052 28.1367C159.505 28.1367 159.01 28.0479 158.568 27.8701C158.131 27.6878 157.757 27.4349 157.447 27.1113C157.142 26.7878 156.907 26.4072 156.743 25.9697C156.579 25.5322 156.497 25.0605 156.497 24.5547V24.2812C156.497 23.7025 156.581 23.1784 156.75 22.709C156.919 22.2396 157.153 21.8385 157.454 21.5059C157.755 21.1686 158.11 20.9111 158.521 20.7334C158.931 20.5557 159.375 20.4668 159.854 20.4668C160.382 20.4668 160.845 20.5557 161.241 20.7334C161.638 20.9111 161.966 21.1618 162.226 21.4854C162.49 21.8044 162.686 22.1849 162.813 22.627C162.946 23.069 163.012 23.5566 163.012 24.0898V24.7939H157.297V23.6113H161.385V23.4814C161.376 23.1852 161.316 22.9072 161.207 22.6475C161.102 22.3877 160.94 22.1781 160.722 22.0186C160.503 21.859 160.211 21.7793 159.847 21.7793C159.573 21.7793 159.329 21.8385 159.115 21.957C158.906 22.071 158.73 22.2373 158.589 22.4561C158.448 22.6748 158.338 22.9391 158.261 23.249C158.188 23.5544 158.151 23.8984 158.151 24.2812V24.5547C158.151 24.8783 158.195 25.179 158.281 25.457C158.372 25.7305 158.505 25.9697 158.678 26.1748C158.851 26.3799 159.061 26.5417 159.307 26.6602C159.553 26.7741 159.833 26.8311 160.147 26.8311C160.544 26.8311 160.897 26.7513 161.207 26.5918C161.517 26.4323 161.786 26.2067 162.014 25.915L162.882 26.7559C162.722 26.9883 162.515 27.2116 162.26 27.4258C162.005 27.6354 161.692 27.8063 161.323 27.9385C160.959 28.0706 160.535 28.1367 160.052 28.1367Z" fill="#1F1F1F"/>
</svg>
