<svg width="131" height="57" viewBox="0 0 131 57" fill="none" xmlns="http://www.w3.org/2000/svg">
<rect x="0.5" y="0.5" width="130" height="56" rx="7.5" fill="white" stroke="#BCC1CA"/>
<path d="M109.71 22.8574C108.936 20.651 106.833 19.0671 104.37 19.0671H104.315C102.71 19.0671 101.265 19.738 100.234 20.8101C99.2036 19.738 97.758 19.0671 96.1533 19.0671H96.1049C94.6939 19.0671 93.4005 19.5858 92.4114 20.4366V20.0077C92.3768 19.572 92.024 19.2331 91.5814 19.2331H87.791C87.3276 19.2331 86.9541 19.6066 86.9541 20.07V40.6404C86.9541 41.1038 87.3276 41.4773 87.791 41.4773H91.5814C92.0033 41.4773 92.356 41.1592 92.4045 40.758V25.9907C92.4045 25.9354 92.4045 25.8939 92.4114 25.8455C92.4736 25.1884 92.9578 24.642 93.7186 24.5797H94.4172C94.7354 24.6074 95.0052 24.718 95.2127 24.891C95.5447 25.1538 95.7245 25.555 95.7245 25.9976L95.7383 40.6888C95.7383 41.1522 96.1118 41.5327 96.5753 41.5327H100.366C100.815 41.5327 101.175 41.1799 101.196 40.7372V25.9838C101.196 25.4996 101.417 25.057 101.811 24.801C102.005 24.6765 102.24 24.5935 102.51 24.5659H103.208C104.032 24.635 104.523 25.2575 104.523 25.9838L104.536 40.6612C104.536 41.1246 104.91 41.4981 105.373 41.4981H109.164C109.606 41.4981 109.973 41.1523 110.001 40.7165V24.6212C109.98 23.7151 109.862 23.2932 109.71 22.8574ZM84.0629 19.2884H81.8979V15.7747C81.8979 15.7678 81.8979 15.7678 81.8979 15.7608C81.8979 15.3458 81.559 15 81.1302 15C81.0817 15 81.0333 15.0069 80.9849 15.0138C78.5848 15.6709 79.062 18.9979 74.6768 19.2815H74.2549C74.1926 19.2815 74.1304 19.2884 74.0681 19.3022C73.7016 19.3921 73.418 19.7241 73.418 20.1253V23.9157C73.418 24.3791 73.7915 24.7526 74.2549 24.7526H76.5374L76.5305 40.8133C76.5305 41.2698 76.904 41.6433 77.3605 41.6433H81.1094C81.5659 41.6433 81.9394 41.2698 81.9394 40.8133V24.7526H84.0629C84.5194 24.7526 84.8998 24.3722 84.8998 23.9157V20.1253C84.8998 19.6619 84.5263 19.2884 84.0629 19.2884Z" fill="#00BAF2"/>
<path d="M70.4362 19.2884H66.6458C66.1893 19.2884 65.8089 19.6619 65.8089 20.1253V27.962C65.8019 28.4462 65.4077 28.8335 64.9235 28.8335H63.3396C62.8485 28.8335 62.4473 28.4393 62.4473 27.9482L62.4335 20.1253C62.4335 19.6619 62.06 19.2884 61.5965 19.2884H57.8062C57.3427 19.2884 56.9692 19.6619 56.9692 20.1253V28.709C56.9692 31.9668 59.2933 34.2978 62.558 34.2978C62.558 34.2978 65.0065 34.2978 65.0826 34.3116C65.5253 34.36 65.8642 34.7335 65.8642 35.19C65.8642 35.6396 65.5322 36.0131 65.0895 36.0685C65.0688 36.0685 65.048 36.0754 65.0273 36.0823L59.4869 36.103C59.0235 36.103 58.65 36.4765 58.65 36.94V40.7234C58.65 41.1869 59.0235 41.5604 59.4869 41.5604H65.6774C68.9421 41.5604 71.2662 39.2363 71.2662 35.9785V20.1253C71.2731 19.6619 70.8996 19.2884 70.4362 19.2884ZM48.8836 19.3092H43.6268C43.1634 19.3092 42.783 19.6619 42.783 20.0908V21.564C42.783 21.5709 42.783 21.5848 42.783 21.5917C42.783 21.6055 42.783 21.6124 42.783 21.6263V23.646C42.783 24.1025 43.1841 24.4829 43.6752 24.4829H48.683C49.0772 24.5451 49.3885 24.8356 49.4369 25.2852V25.7763C49.3954 26.2052 49.0841 26.5164 48.7037 26.551H46.2275C42.9282 26.551 40.5834 28.7436 40.5834 31.8147V36.2206C40.5834 39.2778 42.6031 41.4497 45.8748 41.4497H52.7431C53.9743 41.4497 54.9772 40.5159 54.9772 39.3677V24.9947C54.9772 21.5087 53.1789 19.3092 48.8836 19.3092ZM49.4853 35.1209V35.7157C49.4853 35.7641 49.4784 35.8125 49.4715 35.854C49.4646 35.8955 49.4507 35.937 49.4369 35.9785C49.3193 36.3105 48.9873 36.5526 48.5931 36.5526H47.016C46.5249 36.5526 46.1238 36.1791 46.1238 35.7157V35.0033C46.1238 34.9964 46.1238 34.9825 46.1238 34.9756V33.0735V32.4787V32.4717C46.1238 32.0152 46.5249 31.6417 47.016 31.6417H48.5931C49.0841 31.6417 49.4853 32.0152 49.4853 32.4787V35.1209ZM34.1024 19.2815H25.8231C25.3666 19.2815 25 19.655 25 20.1046V23.8189C25 23.8258 25 23.8327 25 23.8396C25 23.8604 25 23.8742 25 23.8881V40.6888C25 41.1454 25.3389 41.5189 25.7678 41.5258H29.6273C30.0907 41.5258 30.4642 41.1523 30.4642 40.6888L30.4781 34.9341H34.1024C37.132 34.9341 39.2485 32.8314 39.2485 29.7811V24.4414C39.2485 21.398 37.132 19.2815 34.1024 19.2815ZM33.7704 26.2259V28.5638C33.7704 29.0549 33.3762 29.456 32.8851 29.456H30.485V24.7734H32.8851C33.3762 24.7734 33.7704 25.1677 33.7704 25.6587V26.2259Z" fill="#20336B"/>
</svg>
