<svg width="131" height="63" viewBox="0 0 131 63" fill="none" xmlns="http://www.w3.org/2000/svg">
<rect x="0.5" y="0.5" width="130" height="56" rx="7.5" fill="white" stroke="#BCC1CA"/>
<g clip-path="url(#clip0_147_64)">
<path d="M40.43 19.5029C39.5042 20.598 38.023 21.4594 36.5417 21.3363C36.3566 19.8598 37.0848 18.2848 37.9366 17.325C38.8623 16.2053 40.4794 15.4055 41.8001 15.3439C41.9483 16.8697 41.3434 18.3832 40.43 19.5029ZM41.7755 21.6193C39.6277 21.4963 37.7884 22.8375 36.7762 22.8375C35.7394 22.8375 34.1841 21.6808 32.4806 21.7178C30.2711 21.7547 28.222 22.9974 27.0987 24.9785C24.7781 28.9529 26.4939 34.8223 28.7405 38.0584C29.8391 39.658 31.1475 41.4176 32.8756 41.356C34.5173 41.2945 35.1592 40.2978 37.1342 40.2978C39.1216 40.2978 39.7017 41.356 41.4298 41.3314C43.2197 41.2945 44.343 39.7318 45.4416 38.1322C46.6883 36.3111 47.2067 34.5516 47.2314 34.4531C47.1944 34.4162 43.7752 33.1119 43.7381 29.1744C43.7011 25.8767 46.4414 24.3141 46.5648 24.2156C45.0219 21.9269 42.6148 21.6808 41.7755 21.6193ZM54.1686 17.165V41.1469H57.9087V32.9519H63.0808C67.8084 32.9519 71.1166 29.7158 71.1166 25.04C71.1166 20.3642 67.8578 17.165 63.2042 17.165H54.1686ZM57.9087 20.3027H62.2167C65.4631 20.3027 67.3147 22.0254 67.3147 25.0523C67.3147 28.0793 65.4631 29.8266 62.2044 29.8266H57.9087V20.3027ZM77.9303 41.3314C80.2756 41.3314 82.4481 40.1502 83.4356 38.2676H83.5097V41.1469H86.9659V29.2113C86.9659 25.7537 84.1886 23.5142 79.9177 23.5142C75.9553 23.5142 73.0175 25.7783 72.9064 28.8791H76.2762C76.5602 27.4025 77.9303 26.4305 79.8066 26.4305C82.0902 26.4305 83.3739 27.4887 83.3739 29.4451V30.774L78.708 31.057C74.3753 31.3154 72.03 33.0873 72.03 36.1635C72.0423 39.2642 74.4617 41.3314 77.9303 41.3314ZM78.9425 38.489C76.9552 38.489 75.6837 37.5293 75.6837 36.0773C75.6837 34.5639 76.9058 33.6902 79.2387 33.5549L83.3862 33.2965V34.65C83.3862 36.8894 81.473 38.489 78.9425 38.489ZM91.5948 47.6684C95.2363 47.6684 96.952 46.2779 98.4456 42.082L105 23.748H101.198L96.8039 37.9107H96.7298L92.3355 23.748H88.4348L94.7548 41.2084L94.4092 42.2666C93.8414 44.0631 92.9156 44.7644 91.2616 44.7644C90.9653 44.7644 90.3975 44.7275 90.163 44.7029V47.5822C90.3851 47.6314 91.3109 47.6684 91.5948 47.6684Z" fill="black"/>
</g>
<defs>
<clipPath id="clip0_147_64">
<rect width="79" height="63" fill="white" transform="translate(26)"/>
</clipPath>
</defs>
</svg>
