<svg width="128" height="57" viewBox="0 0 128 57" fill="none" xmlns="http://www.w3.org/2000/svg">
<rect x="0.5" y="0.5" width="127" height="56" rx="7.5" fill="white" stroke="#BCC1CA"/>
<g clip-path="url(#clip0_147_63)">
<path d="M83.9606 22.1762C86.3247 22.1762 88.1517 22.816 89.5489 24.0957C90.9459 25.3752 91.5905 27.0813 91.5905 29.214V39.4507H88.5816V37.105H88.4741C87.1846 39.0245 85.3576 39.9842 83.2082 39.9842C81.3812 39.9842 79.7692 39.4508 78.4797 38.3847C77.2976 37.3183 76.5453 35.8255 76.5453 34.226C76.5453 32.5198 77.1901 31.1335 78.4797 30.0672C79.7692 29.0008 81.5962 28.5743 83.7456 28.5743C85.6799 28.5743 87.1846 28.8943 88.3666 29.6407V28.8943C88.3666 27.899 87.9922 26.9038 87.2432 26.2553L87.0769 26.1218C86.2172 25.3753 85.1426 24.9488 83.9606 24.9488C82.1336 24.9488 80.7365 25.6953 79.7692 27.1882L76.9753 25.4817C78.6946 23.2423 80.9514 22.1762 83.9606 22.1762ZM68.8078 14.925C70.7361 14.925 72.5686 15.5908 74.0338 16.8325L74.2886 17.0575C75.7931 18.3372 76.5453 20.2567 76.5453 22.2827C76.5453 24.3087 75.7931 26.1215 74.2886 27.5077C72.7841 28.8938 70.9571 29.6403 68.8078 29.6403L63.6495 29.5337V39.4507H60.4253V14.925H68.8078ZM84.3902 31.1333C83.1007 31.1333 82.0261 31.4532 81.1664 32.093C80.3066 32.6261 79.8767 33.3725 79.8767 34.3322C79.8767 35.1853 80.3067 35.9317 80.9514 36.3583C81.7037 36.8915 82.5634 37.2113 83.4232 37.2113C84.6267 37.2113 85.8304 36.7468 86.7719 35.9047L86.9696 35.7185C88.0442 34.7588 88.5816 33.5858 88.5816 32.3062C87.6144 31.5598 86.2172 31.1332 84.3904 31.1332M69.0229 17.9105H63.6496V26.4417H69.0229C70.2049 26.4417 71.3871 26.0152 72.1394 25.1622C73.8588 23.5627 73.8588 20.8968 72.2469 19.2972L72.1394 19.1905C71.2796 18.3375 70.2049 17.8043 69.0228 17.911M109 22.7093L98.361 46.9152H95.137L99.1132 38.4912L92.1279 22.816H95.5669L100.618 34.8655H100.725L105.669 22.816H109V22.7093Z" fill="#5F6368"/>
<path d="M50.8609 27.4012C50.8609 26.4415 50.7534 25.4818 50.6459 24.5222H37.2129V29.9605H44.8429C44.5205 31.6665 43.5534 33.266 42.0489 34.2258V37.7447H46.6699C49.3565 35.2922 50.861 31.6665 50.861 27.4013" fill="#4285F4"/>
<path d="M37.2127 41.157C41.0814 41.157 44.3054 39.8774 46.6697 37.7447L42.0487 34.2259C40.759 35.0789 39.147 35.612 37.2127 35.612C33.5587 35.612 30.3347 33.1595 29.2601 29.7472H24.5317V33.3727C27.0034 38.1712 31.8394 41.157 37.2127 41.157Z" fill="#34A853"/>
<path d="M29.2598 29.7472C28.6152 28.041 28.6152 26.1217 29.2598 24.3088V20.6833H24.5315C22.4895 24.6288 22.4895 29.3207 24.5315 33.3727L29.2598 29.7472Z" fill="#FBBC04"/>
<path d="M37.2123 18.5507C39.2541 18.5507 41.1885 19.2972 42.6931 20.6833L46.7768 16.6313C44.1975 14.2853 40.7586 12.8992 37.3196 13.0057C31.9463 13.0057 27.003 15.9915 24.6387 20.79L29.3672 24.4155C30.3343 21.0032 33.5583 18.5507 37.2123 18.5507Z" fill="#EA4335"/>
</g>
<defs>
<clipPath id="clip0_147_63">
<rect width="86" height="34" fill="white" transform="translate(23 13)"/>
</clipPath>
</defs>
</svg>
