<svg width="28" height="28" viewBox="0 0 28 28" fill="none" xmlns="http://www.w3.org/2000/svg">
<path d="M14.4033 0.729736C14.6775 0.729736 14.9405 0.837042 15.1343 1.02805C15.3282 1.21905 15.4371 1.47811 15.4371 1.74824V4.46424C15.4371 4.73437 15.3282 4.99343 15.1343 5.18443C14.9405 5.37544 14.6775 5.48275 14.4033 5.48275C14.1291 5.48275 13.8661 5.37544 13.6723 5.18443C13.4784 4.99343 13.3695 4.73437 13.3695 4.46424V1.74824C13.3695 1.47811 13.4784 1.21905 13.6723 1.02805C13.8661 0.837042 14.1291 0.729736 14.4033 0.729736ZM14.4033 22.4632C14.6775 22.4632 14.9405 22.5705 15.1343 22.7615C15.3282 22.9525 15.4371 23.2116 15.4371 23.4817V26.1977C15.4371 26.4678 15.3282 26.7269 15.1343 26.9179C14.9405 27.1089 14.6775 27.2162 14.4033 27.2162C14.1291 27.2162 13.8661 27.1089 13.6723 26.9179C13.4784 26.7269 13.3695 26.4678 13.3695 26.1977V23.4817C13.3695 23.2116 13.4784 22.9525 13.6723 22.7615C13.8661 22.5705 14.1291 22.4632 14.4033 22.4632ZM0.963379 13.9703C0.963379 13.7001 1.0723 13.4411 1.26618 13.2501C1.46007 13.0591 1.72303 12.9518 1.99722 12.9518H4.75413C5.02832 12.9518 5.29128 13.0591 5.48516 13.2501C5.67904 13.4411 5.78797 13.7001 5.78797 13.9703C5.78797 14.2404 5.67904 14.4994 5.48516 14.6905C5.29128 14.8815 5.02832 14.9888 4.75413 14.9888H1.99722C1.72303 14.9888 1.46007 14.8815 1.26618 14.6905C1.0723 14.4994 0.963379 14.2404 0.963379 13.9703ZM23.0186 13.9703C23.0186 13.7001 23.1276 13.4411 23.3214 13.2501C23.5153 13.0591 23.7783 12.9518 24.0525 12.9518H26.8094C27.0836 12.9518 27.3465 13.0591 27.5404 13.2501C27.7343 13.4411 27.8432 13.7001 27.8432 13.9703C27.8432 14.2404 27.7343 14.4994 27.5404 14.6905C27.3465 14.8815 27.0836 14.9888 26.8094 14.9888H24.0525C23.7783 14.9888 23.5153 14.8815 23.3214 14.6905C23.1276 14.4994 23.0186 14.2404 23.0186 13.9703ZM24.7831 3.7445C24.9767 3.93547 25.0854 4.19434 25.0854 4.46424C25.0854 4.73415 24.9767 4.99302 24.7831 5.18399L22.0262 7.89999C21.9315 8.00006 21.8174 8.08032 21.6906 8.13599C21.5637 8.19165 21.4268 8.22159 21.288 8.224C21.1492 8.22641 21.0113 8.20126 20.8826 8.15003C20.7539 8.09881 20.6369 8.02256 20.5387 7.92585C20.4406 7.82913 20.3632 7.71393 20.3112 7.5871C20.2592 7.46028 20.2337 7.32444 20.2361 7.18769C20.2386 7.05093 20.2689 6.91607 20.3254 6.79113C20.3819 6.66619 20.4634 6.55375 20.565 6.46051L23.3219 3.7445C23.5157 3.55377 23.7785 3.44664 24.0525 3.44664C24.3264 3.44664 24.5892 3.55377 24.7831 3.7445ZM4.02355 3.7445C4.21739 3.55377 4.48016 3.44664 4.75413 3.44664C5.02809 3.44664 5.29086 3.55377 5.48471 3.7445L8.24161 6.46051C8.42423 6.65358 8.52365 6.90895 8.51892 7.17281C8.5142 7.43667 8.4057 7.68843 8.21628 7.87503C8.02686 8.06164 7.77132 8.16853 7.50348 8.17319C7.23565 8.17784 6.97643 8.0799 6.78045 7.89999L4.02355 5.18399C3.82994 4.99302 3.7212 4.73415 3.7212 4.46424C3.7212 4.19434 3.82994 3.93547 4.02355 3.7445ZM8.24161 20.0405C8.43522 20.2315 8.54396 20.4904 8.54396 20.7603C8.54396 21.0302 8.43522 21.2891 8.24161 21.48L5.48471 24.196C5.28873 24.3759 5.02951 24.4739 4.76168 24.4692C4.49384 24.4646 4.2383 24.3577 4.04888 24.1711C3.85946 23.9845 3.75096 23.7327 3.74624 23.4688C3.74151 23.205 3.84093 22.9496 4.02355 22.7565L6.78045 20.0405C6.9743 19.8498 7.23706 19.7427 7.51103 19.7427C7.785 19.7427 8.04777 19.8498 8.24161 20.0405ZM20.565 20.0405C20.7588 19.8498 21.0216 19.7427 21.2956 19.7427C21.5695 19.7427 21.8323 19.8498 22.0262 20.0405L24.7831 22.7565C24.8846 22.8498 24.9661 22.9622 25.0226 23.0872C25.0791 23.2121 25.1095 23.347 25.1119 23.4837C25.1144 23.6205 25.0889 23.7563 25.0369 23.8831C24.9849 24.01 24.9075 24.1252 24.8093 24.2219C24.7111 24.3186 24.5942 24.3948 24.4655 24.4461C24.3367 24.4973 24.1988 24.5224 24.06 24.52C23.9212 24.5176 23.7843 24.4877 23.6575 24.432C23.5307 24.3764 23.4165 24.2961 23.3219 24.196L20.565 21.48C20.3714 21.2891 20.2626 21.0302 20.2626 20.7603C20.2626 20.4904 20.3714 20.2315 20.565 20.0405ZM14.4033 7.51975C12.6668 7.51975 11.0013 8.19936 9.77341 9.40906C8.54549 10.6188 7.85565 12.2595 7.85565 13.9703C7.85565 15.681 8.54549 17.3218 9.77341 18.5315C11.0013 19.7412 12.6668 20.4208 14.4033 20.4208C16.1398 20.4208 17.8053 19.7412 19.0332 18.5315C20.2611 17.3218 20.951 15.681 20.951 13.9703C20.951 12.2595 20.2611 10.6188 19.0332 9.40906C17.8053 8.19936 16.1398 7.51975 14.4033 7.51975Z" fill="#EA770B"/>
</svg>
